<svg width="219.99999999999997" height="54.99999999999999" xmlns="http://www.w3.org/2000/svg" class="icon">

 <g>
  <title>background</title>
  <rect fill="none" id="canvas_background" height="57" width="222" y="-1" x="-1"/>
 </g>
 <g>
  <title>Layer 1</title>
  <line stroke-linecap="null" stroke-linejoin="null" id="svg_21" y2="-8.335054" x2="30.545839" y1="-25.42588" x1="-66.5446" fill-opacity="null" stroke-opacity="null" stroke-width="null" stroke="null" fill="none"/>
  <text stroke="null" transform="matrix(1.401861310005188,0,0,1.544104814529419,-14.623984234407544,-0.1445278413593769) " xml:space="preserve" text-anchor="start" font-family="Helvetica, Arial, sans-serif" font-size="24" id="svg_41" y="27.923393" x="48.555511" stroke-opacity="null" stroke-width="0" fill="#000000">TestOnline</text>
  <path id="svg_42" d="m39.428851,10.360892c-3.093024,-2.799579 -6.429021,-5.042216 -9.165567,-5.347955c-0.148976,-0.019832 -0.303272,-0.0314 -0.466437,-0.034706l-18.010127,0c-0.287311,0 -0.571074,0.104117 -0.773256,0.297476c-0.200408,0.188401 -0.319234,0.452824 -0.319234,0.722205l0,42.555577c0,0.267728 0.111732,0.523888 0.319234,0.7189c0.207502,0.191707 0.480625,0.295823 0.773256,0.295823l32.568977,0c0.287311,0 0.562207,-0.102464 0.769709,-0.295823c0.207502,-0.193359 0.322781,-0.449519 0.322781,-0.7189l0,-28.318051c-0.063847,-3.287108 -2.826996,-6.871693 -6.019337,-9.874547zm-1.537644,1.441105c1.427686,1.298978 2.711717,2.769831 3.669419,4.187799c-0.830009,-0.305739 -1.700809,-0.532151 -2.518403,-0.712289c-1.800126,-0.376803 -3.561234,-0.528846 -4.655498,-0.589994c0.005321,-0.219802 0.007094,-0.467698 0.007094,-0.737079c0,-1.436147 -0.097544,-3.483773 -0.631374,-5.28846c-0.005321,-0.016526 -0.008868,-0.033053 -0.015962,-0.049579c1.354972,0.832932 2.830543,1.938551 4.144723,3.189602zm5.368454,35.728506l-30.383997,0l0,-40.51952l16.922957,0l0,0.003305c0.737786,-0.041316 1.37448,0.63792 1.862199,2.191406c0.443381,1.479116 0.555113,3.407751 0.553339,4.74474c0.003547,0.980018 -0.047885,1.63777 -0.047885,1.63777l-0.086903,1.077524l1.163431,0.011569c0.005321,0 2.688661,0.029748 5.320569,0.586689c2.529044,0.509014 4.506522,1.523738 4.690968,2.672325c0.007094,0.102464 0.008868,0.204928 0.007094,0.300781l0,27.293412l-0.001774,0z" fill-opacity="null" stroke-opacity="null" stroke-width="0" stroke="null" fill="#000000"/>
  <text stroke="null" transform="matrix(0.3859187425514677,0,0,0.402103124483577,8.068576033982966,13.15723874947195) " xml:space="preserve" text-anchor="start" font-family="Helvetica, Arial, sans-serif" font-size="24" id="svg_44" y="12.304713" x="16.03899" fill-opacity="null" stroke-opacity="null" stroke-width="0" fill="#000000">100</text>
  <path id="svg_45" d="m28.973626,27.280032l0.959392,-1.033838l2.62824,2.830816l4.381192,-4.718027l0.959732,1.033107l-5.340923,5.752596" fill-opacity="null" stroke-opacity="null" stroke-width="0" stroke="null" fill="#000000"/>
  <path id="svg_46" d="m56.336082,-27.12775l0.014145,-0.01415l0.03875,0.038745l0.064595,-0.064575l0.01415,0.01414l-0.078745,0.078735" fill-opacity="null" stroke-opacity="null" stroke-width="0" stroke="null" fill="#000000"/>
  <path id="svg_48" d="m28.97363,37.280015l0.95939,-1.03384l2.62824,2.83082l4.38119,-4.71803l0.95973,1.03311l-5.34092,5.7526" fill-opacity="null" stroke-opacity="null" stroke-width="0" stroke="null" fill="#000000"/>
 </g>
</svg>